<svg width="679" height="830" viewBox="0 0 679 830" fill="none" xmlns="http://www.w3.org/2000/svg">
<path d="M339.49 1C481.351 1.00005 568.353 42.6667 616.507 77.7988L618.771 79.4668C626.677 85.3493 632.518 89.6986 637.886 95.5312C642.909 100.989 647.543 107.778 653.013 118.379L654.118 120.551C665.968 144.138 665.979 159.911 665.979 191.902V469.682C665.979 507.563 665.967 526.572 659.637 544.649L659.331 545.51C653.109 562.706 643.01 575.457 623.318 599.146L619.25 604.033C562.817 671.804 511.638 719.045 443.752 764.951L440.507 767.137C394.919 797.698 372.054 812.99 339.968 813.944L338.433 813.979C307.587 814.455 285.517 801.895 244.62 776.352L236.183 771.07C164.111 725.912 111.713 677.693 55.791 604.605L53.125 601.105C34.0346 575.936 24.6187 563.506 18.8145 546.249C13.0113 528.995 13 511.502 13 476.082V191.902C13 160.411 13.0107 144.634 24.3145 121.65L24.8613 120.551C30.8205 108.69 35.7368 101.353 41.0947 95.5312C45.7913 90.4278 50.85 86.4594 57.3379 81.6064L60.21 79.4668C107.879 44.0001 195.378 1.00002 339.49 1Z" fill="url(#paint0_linear_2002_88)" stroke="url(#paint1_linear_2002_88)" stroke-width="2"/>
<path opacity="0.3" d="M339.49 51.6614C463.994 51.6614 540.341 88.2294 582.589 119.053L584.575 120.517C591.518 125.682 596.634 129.493 601.336 134.602C605.734 139.381 609.797 145.329 614.595 154.628L615.564 156.533C625.951 177.207 625.962 191.023 625.962 219.108V462.958C625.962 496.222 625.949 512.881 620.401 528.723L620.133 529.477C614.68 544.546 605.832 555.721 588.544 576.519L584.973 580.811C535.44 640.295 490.521 681.756 430.938 722.047L428.091 723.965C387.426 751.226 367.392 764.618 338.56 765.063C311.528 765.48 292.188 754.479 256.283 732.053L248.874 727.416C185.621 687.783 139.635 645.465 90.5527 581.317L88.2139 578.245C71.4511 556.145 63.2018 545.251 58.1152 530.128C53.0299 515.008 53.0176 499.679 53.0176 468.576V219.108C53.0176 191.023 53.0289 177.207 63.415 156.533C68.6428 146.128 72.9519 139.7 77.6436 134.602C81.7574 130.132 86.1893 126.655 91.8838 122.396L94.4043 120.517C136.227 89.4 213.01 51.6614 339.49 51.6614Z" stroke="url(#paint2_linear_2002_88)" stroke-width="2.0354"/>
<g filter="url(#filter0_ddii_2002_88)">
<path d="M83.9797 240.857C83.9797 215.901 83.9797 203.423 93.317 184.837C102.654 166.252 108.812 161.671 121.127 152.508C158.454 124.736 226.884 91.1331 339.49 91.1331C452.095 91.133 520.526 124.736 557.852 152.508C570.168 161.671 576.326 166.252 585.663 184.837C595 203.423 595 215.901 595 240.857V457.583C595 487.556 595 502.543 589.766 517.009C584.531 531.475 575.808 541.951 558.361 562.904C513.589 616.671 473.036 653.906 418.738 690.307C382.661 714.493 364.622 726.586 338.677 726.986C312.732 727.386 294.646 716.054 258.474 693.389C201.265 657.543 159.913 619.22 115.444 560.592C100.571 540.983 93.1344 531.178 88.5571 517.569C83.9797 503.96 83.9797 490.166 83.9797 462.576V240.857Z" fill="url(#paint3_linear_2002_88)"/>
</g>
<g filter="url(#filter1_ii_2002_88)">
<path d="M131.617 235.43C131.617 224.006 131.617 218.294 134.965 210.936C138.313 203.578 141.413 200.877 147.611 195.476C172.983 173.368 231.067 137.191 339.49 137.191C447.913 137.191 505.996 173.368 531.368 195.476C537.567 200.877 540.667 203.578 544.015 210.936C547.363 218.294 547.363 224.006 547.363 235.43V459.644C547.363 476.663 547.363 485.173 544.563 493.223C541.763 501.273 536.701 507.668 526.577 520.459C478.4 581.332 438.035 621.113 373.437 661.219C357.506 671.11 349.54 676.055 339.298 676.253C329.056 676.451 320.956 671.846 304.755 662.636C237.293 624.283 196.342 584.307 149.415 519.072C140.793 507.086 136.482 501.092 134.049 493.546C131.617 486 131.617 478.172 131.617 462.515L131.617 235.43Z" fill="url(#paint4_linear_2002_88)"/>
</g>
<g opacity="0.3" filter="url(#filter2_f_2002_88)">
<path d="M109 322V449.426C109 474.717 109 487.362 113.822 502.218C118.644 517.074 124.533 525.188 136.309 541.418C157.564 570.71 186.537 605.367 214.5 628.5" stroke="url(#paint5_linear_2002_88)" stroke-opacity="0.93" stroke-width="10" stroke-linecap="round"/>
</g>
<g filter="url(#filter3_d_2002_88)">
<path d="M389 351L307 351V490" stroke="white" stroke-width="50" stroke-linecap="round" stroke-linejoin="round"/>
<path d="M407 265L307 265V490" stroke="white" stroke-width="50" stroke-linecap="round" stroke-linejoin="round"/>
</g>
<path d="M398.99 595.985C399.476 595.498 400.053 595.254 400.721 595.254C401.389 595.254 401.965 595.498 402.449 595.985L406.272 599.886C406.757 600.374 407 600.942 407 601.593C407 602.243 406.757 602.811 406.272 603.299C405.786 603.787 405.22 604.03 404.573 604.03C403.926 604.03 403.359 603.787 402.874 603.299L398.99 599.459C398.505 598.972 398.262 598.393 398.262 597.724C398.262 597.054 398.505 596.475 398.99 595.985ZM401.417 566.731C401.903 567.219 402.146 567.798 402.146 568.47C402.146 569.141 401.903 569.719 401.417 570.205L397.595 574.045C397.109 574.532 396.533 574.776 395.867 574.776C395.2 574.776 394.623 574.532 394.136 574.045C393.649 573.557 393.406 572.979 393.408 572.309C393.409 571.64 393.652 571.06 394.136 570.571L398.019 566.731C398.505 566.244 399.071 566 399.718 566C400.366 566 400.932 566.244 401.417 566.731ZM362.583 566.731C363.068 566.244 363.645 566 364.313 566C364.981 566 365.557 566.244 366.041 566.731L369.864 570.632C370.35 571.119 370.592 571.688 370.592 572.338C370.592 572.988 370.35 573.557 369.864 574.045C369.379 574.532 368.803 574.776 368.136 574.776C367.469 574.776 366.892 574.532 366.405 574.045L362.583 570.205C362.097 569.718 361.854 569.139 361.854 568.47C361.854 567.8 362.097 567.221 362.583 566.731ZM365.01 595.985C365.495 596.473 365.738 597.052 365.738 597.724C365.738 598.395 365.495 598.973 365.01 599.459L361.187 603.299C360.701 603.787 360.125 604.03 359.459 604.03C358.792 604.03 358.215 603.787 357.728 603.299C357.241 602.811 356.998 602.233 357 601.563C357.002 600.894 357.244 600.314 357.728 599.825L361.612 595.985C362.097 595.498 362.663 595.254 363.311 595.254C363.958 595.254 364.524 595.498 365.01 595.985ZM382 601.532L371.927 607.626C371.482 607.911 371.017 608.032 370.532 607.992C370.046 607.951 369.621 607.789 369.257 607.504C368.893 607.22 368.61 606.865 368.408 606.439C368.206 606.013 368.165 605.535 368.286 605.005L370.956 593.487L362.036 585.747C361.632 585.381 361.379 584.964 361.279 584.496C361.179 584.028 361.209 583.571 361.369 583.126C361.529 582.681 361.772 582.315 362.097 582.029C362.422 581.743 362.867 581.56 363.432 581.48L375.204 580.444L379.755 569.596C379.957 569.108 380.271 568.743 380.697 568.499C381.122 568.255 381.557 568.133 382 568.133C382.443 568.133 382.878 568.255 383.303 568.499C383.729 568.743 384.043 569.108 384.245 569.596L388.796 580.444L400.568 581.48C401.134 581.562 401.579 581.744 401.903 582.029C402.227 582.313 402.469 582.679 402.631 583.126C402.793 583.573 402.824 584.03 402.723 584.498C402.623 584.966 402.37 585.382 401.964 585.747L393.044 593.487L395.714 605.005C395.835 605.534 395.795 606.012 395.592 606.439C395.39 606.866 395.107 607.221 394.743 607.504C394.379 607.787 393.954 607.95 393.468 607.992C392.983 608.034 392.518 607.912 392.073 607.626L382 601.532Z" fill="#FFD700"/>
<path d="M323.99 595.985C324.476 595.498 325.053 595.254 325.721 595.254C326.389 595.254 326.965 595.498 327.449 595.985L331.272 599.886C331.757 600.374 332 600.942 332 601.593C332 602.243 331.757 602.811 331.272 603.299C330.786 603.787 330.22 604.03 329.573 604.03C328.926 604.03 328.359 603.787 327.874 603.299L323.99 599.459C323.505 598.972 323.262 598.393 323.262 597.724C323.262 597.054 323.505 596.475 323.99 595.985ZM326.417 566.731C326.903 567.219 327.146 567.798 327.146 568.47C327.146 569.141 326.903 569.719 326.417 570.205L322.595 574.045C322.109 574.532 321.533 574.776 320.867 574.776C320.2 574.776 319.623 574.532 319.136 574.045C318.649 573.557 318.406 572.979 318.408 572.309C318.409 571.64 318.652 571.06 319.136 570.571L323.019 566.731C323.505 566.244 324.071 566 324.718 566C325.366 566 325.932 566.244 326.417 566.731ZM287.583 566.731C288.068 566.244 288.645 566 289.313 566C289.981 566 290.557 566.244 291.041 566.731L294.864 570.632C295.35 571.119 295.592 571.688 295.592 572.338C295.592 572.988 295.35 573.557 294.864 574.045C294.379 574.532 293.803 574.776 293.136 574.776C292.469 574.776 291.892 574.532 291.405 574.045L287.583 570.205C287.097 569.718 286.854 569.139 286.854 568.47C286.854 567.8 287.097 567.221 287.583 566.731ZM290.01 595.985C290.495 596.473 290.738 597.052 290.738 597.724C290.738 598.395 290.495 598.973 290.01 599.459L286.187 603.299C285.701 603.787 285.125 604.03 284.459 604.03C283.792 604.03 283.215 603.787 282.728 603.299C282.241 602.811 281.998 602.233 282 601.563C282.002 600.894 282.244 600.314 282.728 599.825L286.612 595.985C287.097 595.498 287.663 595.254 288.311 595.254C288.958 595.254 289.524 595.498 290.01 595.985ZM307 601.532L296.927 607.626C296.482 607.911 296.017 608.032 295.532 607.992C295.046 607.951 294.621 607.789 294.257 607.504C293.893 607.22 293.61 606.865 293.408 606.439C293.206 606.013 293.165 605.535 293.286 605.005L295.956 593.487L287.036 585.747C286.632 585.381 286.379 584.964 286.279 584.496C286.179 584.028 286.209 583.571 286.369 583.126C286.529 582.681 286.772 582.315 287.097 582.029C287.422 581.743 287.867 581.56 288.432 581.48L300.204 580.444L304.755 569.596C304.957 569.108 305.271 568.743 305.697 568.499C306.122 568.255 306.557 568.133 307 568.133C307.443 568.133 307.878 568.255 308.303 568.499C308.729 568.743 309.043 569.108 309.245 569.596L313.796 580.444L325.568 581.48C326.134 581.562 326.579 581.744 326.903 582.029C327.227 582.313 327.469 582.679 327.631 583.126C327.793 583.573 327.824 584.03 327.723 584.498C327.623 584.966 327.37 585.382 326.964 585.747L318.044 593.487L320.714 605.005C320.835 605.534 320.795 606.012 320.592 606.439C320.39 606.866 320.107 607.221 319.743 607.504C319.379 607.787 318.954 607.95 318.468 607.992C317.983 608.034 317.518 607.912 317.073 607.626L307 601.532Z" fill="#FFD700"/>
<defs>
<filter id="filter0_ddii_2002_88" x="0.63736" y="7.79068" width="677.705" height="802.548" filterUnits="userSpaceOnUse" color-interpolation-filters="sRGB">
<feFlood flood-opacity="0" result="BackgroundImageFix"/>
<feColorMatrix in="SourceAlpha" type="matrix" values="0 0 0 0 0 0 0 0 0 0 0 0 0 0 0 0 0 0 127 0" result="hardAlpha"/>
<feOffset dx="26.3186" dy="-26.3186"/>
<feGaussianBlur stdDeviation="28.5119"/>
<feComposite in2="hardAlpha" operator="out"/>
<feColorMatrix type="matrix" values="0 0 0 0 1 0 0 0 0 1 0 0 0 0 1 0 0 0 1 0"/>
<feBlend mode="normal" in2="BackgroundImageFix" result="effect1_dropShadow_2002_88"/>
<feColorMatrix in="SourceAlpha" type="matrix" values="0 0 0 0 0 0 0 0 0 0 0 0 0 0 0 0 0 0 127 0" result="hardAlpha"/>
<feOffset dx="-26.3186" dy="26.3186"/>
<feGaussianBlur stdDeviation="28.5119"/>
<feComposite in2="hardAlpha" operator="out"/>
<feColorMatrix type="matrix" values="0 0 0 0 0 0 0 0 0 0 0 0 0 0 0 0 0 0 0.5 0"/>
<feBlend mode="normal" in2="effect1_dropShadow_2002_88" result="effect2_dropShadow_2002_88"/>
<feBlend mode="normal" in="SourceGraphic" in2="effect2_dropShadow_2002_88" result="shape"/>
<feColorMatrix in="SourceAlpha" type="matrix" values="0 0 0 0 0 0 0 0 0 0 0 0 0 0 0 0 0 0 127 0" result="hardAlpha"/>
<feOffset dx="-13.1593" dy="13.1593"/>
<feGaussianBlur stdDeviation="8.11492"/>
<feComposite in2="hardAlpha" operator="arithmetic" k2="-1" k3="1"/>
<feColorMatrix type="matrix" values="0 0 0 0 1 0 0 0 0 1 0 0 0 0 1 0 0 0 0.77 0"/>
<feBlend mode="normal" in2="shape" result="effect3_innerShadow_2002_88"/>
<feColorMatrix in="SourceAlpha" type="matrix" values="0 0 0 0 0 0 0 0 0 0 0 0 0 0 0 0 0 0 127 0" result="hardAlpha"/>
<feOffset dx="13.1593" dy="-13.1593"/>
<feGaussianBlur stdDeviation="8.11492"/>
<feComposite in2="hardAlpha" operator="arithmetic" k2="-1" k3="1"/>
<feColorMatrix type="matrix" values="0 0 0 0 0 0 0 0 0 0 0 0 0 0 0 0 0 0 0.45 0"/>
<feBlend mode="normal" in2="effect3_innerShadow_2002_88" result="effect4_innerShadow_2002_88"/>
</filter>
<filter id="filter1_ii_2002_88" x="118.458" y="124.031" width="442.064" height="565.387" filterUnits="userSpaceOnUse" color-interpolation-filters="sRGB">
<feFlood flood-opacity="0" result="BackgroundImageFix"/>
<feBlend mode="normal" in="SourceGraphic" in2="BackgroundImageFix" result="shape"/>
<feColorMatrix in="SourceAlpha" type="matrix" values="0 0 0 0 0 0 0 0 0 0 0 0 0 0 0 0 0 0 127 0" result="hardAlpha"/>
<feOffset dx="-13.1593" dy="13.1593"/>
<feGaussianBlur stdDeviation="23.0288"/>
<feComposite in2="hardAlpha" operator="arithmetic" k2="-1" k3="1"/>
<feColorMatrix type="matrix" values="0 0 0 0 0 0 0 0 0 0 0 0 0 0 0 0 0 0 0.43 0"/>
<feBlend mode="normal" in2="shape" result="effect1_innerShadow_2002_88"/>
<feColorMatrix in="SourceAlpha" type="matrix" values="0 0 0 0 0 0 0 0 0 0 0 0 0 0 0 0 0 0 127 0" result="hardAlpha"/>
<feOffset dx="13.1593" dy="-13.1593"/>
<feGaussianBlur stdDeviation="25.1124"/>
<feComposite in2="hardAlpha" operator="arithmetic" k2="-1" k3="1"/>
<feColorMatrix type="matrix" values="0 0 0 0 1 0 0 0 0 1 0 0 0 0 1 0 0 0 0.55 0"/>
<feBlend mode="normal" in2="effect1_innerShadow_2002_88" result="effect2_innerShadow_2002_88"/>
</filter>
<filter id="filter2_f_2002_88" x="93.5" y="306.5" width="136.5" height="337.5" filterUnits="userSpaceOnUse" color-interpolation-filters="sRGB">
<feFlood flood-opacity="0" result="BackgroundImageFix"/>
<feBlend mode="normal" in="SourceGraphic" in2="BackgroundImageFix" result="shape"/>
<feGaussianBlur stdDeviation="5.25" result="effect1_foregroundBlur_2002_88"/>
</filter>
<filter id="filter3_d_2002_88" x="278" y="240" width="158" height="283" filterUnits="userSpaceOnUse" color-interpolation-filters="sRGB">
<feFlood flood-opacity="0" result="BackgroundImageFix"/>
<feColorMatrix in="SourceAlpha" type="matrix" values="0 0 0 0 0 0 0 0 0 0 0 0 0 0 0 0 0 0 127 0" result="hardAlpha"/>
<feOffset dy="4"/>
<feGaussianBlur stdDeviation="2"/>
<feComposite in2="hardAlpha" operator="out"/>
<feColorMatrix type="matrix" values="0 0 0 0 0 0 0 0 0 0 0 0 0 0 0 0 0 0 0.25 0"/>
<feBlend mode="normal" in2="BackgroundImageFix" result="effect1_dropShadow_2002_88"/>
<feBlend mode="normal" in="SourceGraphic" in2="effect1_dropShadow_2002_88" result="shape"/>
</filter>
<linearGradient id="paint0_linear_2002_88" x1="504.98" y1="24.1331" x2="168.48" y2="757" gradientUnits="userSpaceOnUse">
<stop stop-color="white"/>
<stop offset="0.9999" stop-color="#FFD700" stop-opacity="0"/>
</linearGradient>
<linearGradient id="paint1_linear_2002_88" x1="603.731" y1="59.0326" x2="175.042" y2="780.073" gradientUnits="userSpaceOnUse">
<stop stop-color="#FFF2AB"/>
<stop offset="1" stop-color="#FFD700"/>
</linearGradient>
<linearGradient id="paint2_linear_2002_88" x1="571.456" y1="102.466" x2="195.128" y2="735.437" gradientUnits="userSpaceOnUse">
<stop stop-color="#FFF8D2"/>
<stop offset="1" stop-color="#FFD700"/>
</linearGradient>
<linearGradient id="paint3_linear_2002_88" x1="545.653" y1="137.191" x2="211.187" y2="699.752" gradientUnits="userSpaceOnUse">
<stop stop-color="#FFF9DA"/>
<stop offset="1" stop-color="#FFD700"/>
</linearGradient>
<linearGradient id="paint4_linear_2002_88" x1="507.216" y1="176.066" x2="220.047" y2="641.616" gradientUnits="userSpaceOnUse">
<stop stop-color="#FFD700"/>
<stop offset="1" stop-color="#FFFBE7"/>
</linearGradient>
<linearGradient id="paint5_linear_2002_88" x1="134.61" y1="314.906" x2="167.536" y2="636.111" gradientUnits="userSpaceOnUse">
<stop stop-color="white" stop-opacity="0"/>
<stop offset="0.47" stop-color="white"/>
<stop offset="1" stop-color="white" stop-opacity="0"/>
</linearGradient>
</defs>
</svg>
