<svg width="679" height="830" viewBox="0 0 679 830" fill="none" xmlns="http://www.w3.org/2000/svg">
<path d="M12 191.903C12 159.916 12 143.923 23.9677 120.102C35.9353 96.2809 43.8277 90.4088 59.6126 78.6646C107.454 43.0695 195.162 1.5288e-05 339.49 0C483.817 -1.5288e-05 571.525 43.0695 619.367 78.6646C635.152 90.4088 643.044 96.2809 655.012 120.102C666.98 143.923 666.98 159.916 666.98 191.903V469.682C666.98 508.1 666.98 527.309 660.271 545.85C653.562 564.391 642.381 577.818 620.019 604.674C562.635 673.587 510.658 721.312 441.064 767.967C394.823 798.966 371.702 814.466 338.448 814.979C305.194 815.492 282.013 800.967 235.651 771.917C162.325 725.973 109.324 676.854 52.3284 601.71C33.2652 576.577 23.7336 564.011 17.8668 546.568C12 529.125 12 511.444 12 476.082V191.903Z" fill="url(#paint0_linear_2002_87)"/>
<path opacity="0.3" d="M339.49 51.6614C463.994 51.6614 540.341 88.2294 582.589 119.053L584.575 120.517C591.518 125.682 596.634 129.493 601.336 134.602C605.734 139.381 609.797 145.329 614.595 154.628L615.564 156.533C625.951 177.207 625.962 191.023 625.962 219.108V462.958C625.962 496.222 625.949 512.881 620.401 528.723L620.133 529.477C614.68 544.546 605.832 555.721 588.544 576.519L584.973 580.811C535.44 640.295 490.521 681.756 430.938 722.047L428.091 723.965C387.426 751.226 367.392 764.618 338.56 765.063C311.528 765.48 292.188 754.479 256.283 732.053L248.874 727.416C185.621 687.783 139.635 645.465 90.5527 581.317L88.2139 578.245C71.4511 556.145 63.2018 545.251 58.1152 530.128C53.0299 515.008 53.0176 499.679 53.0176 468.576V219.108C53.0176 191.023 53.0289 177.207 63.415 156.533C68.6428 146.128 72.9519 139.7 77.6436 134.602C81.7574 130.132 86.1893 126.655 91.8838 122.396L94.4043 120.517C136.227 89.4 213.01 51.6614 339.49 51.6614Z" stroke="url(#paint1_linear_2002_87)" stroke-width="2.0354"/>
<g filter="url(#filter0_ddii_2002_87)">
<path d="M83.9797 240.857C83.9797 215.901 83.9797 203.423 93.317 184.837C102.654 166.252 108.812 161.671 121.127 152.508C158.454 124.736 226.884 91.1331 339.49 91.1331C452.095 91.133 520.526 124.736 557.852 152.508C570.168 161.671 576.326 166.252 585.663 184.837C595 203.423 595 215.901 595 240.857V457.583C595 487.556 595 502.543 589.766 517.009C584.531 531.475 575.808 541.951 558.361 562.904C513.589 616.671 473.036 653.906 418.738 690.307C382.661 714.493 364.622 726.586 338.677 726.986C312.732 727.386 294.646 716.054 258.474 693.389C201.265 657.543 159.913 619.22 115.444 560.592C100.571 540.983 93.1344 531.178 88.5571 517.569C83.9797 503.96 83.9797 490.166 83.9797 462.576V240.857Z" fill="url(#paint2_linear_2002_87)"/>
</g>
<g filter="url(#filter1_ii_2002_87)">
<path d="M131.617 235.43C131.617 224.006 131.617 218.294 134.965 210.936C138.313 203.578 141.413 200.877 147.611 195.476C172.983 173.368 231.067 137.191 339.49 137.191C447.913 137.191 505.996 173.368 531.368 195.476C537.567 200.877 540.667 203.578 544.015 210.936C547.363 218.294 547.363 224.006 547.363 235.43V459.644C547.363 476.663 547.363 485.173 544.563 493.223C541.762 501.272 536.701 507.668 526.577 520.459C478.4 581.332 438.035 621.113 373.437 661.219C357.506 671.11 349.54 676.055 339.298 676.253C329.056 676.451 320.956 671.846 304.755 662.636C237.293 624.283 196.342 584.307 149.415 519.072C140.793 507.086 136.482 501.092 134.049 493.546C131.617 486 131.617 478.172 131.617 462.515L131.617 235.43Z" fill="url(#paint3_linear_2002_87)"/>
</g>
<g opacity="0.3" filter="url(#filter2_f_2002_87)">
<path d="M109 322V449.426C109 474.717 109 487.362 113.822 502.218C118.644 517.074 124.533 525.188 136.309 541.418C157.564 570.71 186.537 605.367 214.5 628.5" stroke="url(#paint4_linear_2002_87)" stroke-opacity="0.93" stroke-width="10" stroke-linecap="round"/>
</g>
<g filter="url(#filter3_d_2002_87)">
<path d="M389 351L307 351V490" stroke="#EEEEEE" stroke-width="50" stroke-linecap="round" stroke-linejoin="round"/>
<path d="M407 265L307 265V490" stroke="#EEEEEE" stroke-width="50" stroke-linecap="round" stroke-linejoin="round"/>
</g>
<path d="M355.99 616.985C356.476 616.498 357.053 616.254 357.721 616.254C358.389 616.254 358.965 616.498 359.449 616.985L363.272 620.886C363.757 621.374 364 621.942 364 622.593C364 623.243 363.757 623.811 363.272 624.299C362.786 624.787 362.22 625.03 361.573 625.03C360.926 625.03 360.359 624.787 359.874 624.299L355.99 620.459C355.505 619.972 355.262 619.393 355.262 618.724C355.262 618.054 355.505 617.475 355.99 616.985ZM358.417 587.731C358.903 588.219 359.146 588.798 359.146 589.47C359.146 590.141 358.903 590.719 358.417 591.205L354.595 595.045C354.109 595.532 353.533 595.776 352.867 595.776C352.2 595.776 351.623 595.532 351.136 595.045C350.649 594.557 350.406 593.979 350.408 593.309C350.409 592.64 350.652 592.06 351.136 591.571L355.019 587.731C355.505 587.244 356.071 587 356.718 587C357.366 587 357.932 587.244 358.417 587.731ZM319.583 587.731C320.068 587.244 320.645 587 321.313 587C321.981 587 322.557 587.244 323.041 587.731L326.864 591.632C327.35 592.119 327.592 592.688 327.592 593.338C327.592 593.988 327.35 594.557 326.864 595.045C326.379 595.532 325.803 595.776 325.136 595.776C324.469 595.776 323.892 595.532 323.405 595.045L319.583 591.205C319.097 590.718 318.854 590.139 318.854 589.47C318.854 588.8 319.097 588.221 319.583 587.731ZM322.01 616.985C322.495 617.473 322.738 618.052 322.738 618.724C322.738 619.395 322.495 619.973 322.01 620.459L318.187 624.299C317.701 624.787 317.125 625.03 316.459 625.03C315.792 625.03 315.215 624.787 314.728 624.299C314.241 623.811 313.998 623.233 314 622.563C314.002 621.894 314.244 621.314 314.728 620.825L318.612 616.985C319.097 616.498 319.663 616.254 320.311 616.254C320.958 616.254 321.524 616.498 322.01 616.985ZM339 622.532L328.927 628.626C328.482 628.911 328.017 629.032 327.532 628.992C327.046 628.951 326.621 628.789 326.257 628.504C325.893 628.22 325.61 627.865 325.408 627.439C325.206 627.013 325.165 626.535 325.286 626.005L327.956 614.487L319.036 606.747C318.632 606.381 318.379 605.964 318.279 605.496C318.179 605.028 318.209 604.571 318.369 604.126C318.529 603.681 318.772 603.315 319.097 603.029C319.422 602.743 319.867 602.56 320.432 602.48L332.204 601.444L336.755 590.596C336.957 590.108 337.271 589.743 337.697 589.499C338.122 589.255 338.557 589.133 339 589.133C339.443 589.133 339.878 589.255 340.303 589.499C340.729 589.743 341.043 590.108 341.245 590.596L345.796 601.444L357.568 602.48C358.134 602.562 358.579 602.744 358.903 603.029C359.227 603.313 359.469 603.679 359.631 604.126C359.793 604.573 359.824 605.03 359.723 605.498C359.623 605.966 359.37 606.382 358.964 606.747L350.044 614.487L352.714 626.005C352.835 626.534 352.795 627.012 352.592 627.439C352.39 627.866 352.107 628.221 351.743 628.504C351.379 628.787 350.954 628.95 350.468 628.992C349.983 629.034 349.518 628.912 349.073 628.626L339 622.532Z" fill="#4333FF"/>
<path d="M405.99 574.985C406.476 574.498 407.053 574.254 407.721 574.254C408.389 574.254 408.965 574.498 409.449 574.985L413.272 578.886C413.757 579.374 414 579.942 414 580.593C414 581.243 413.757 581.811 413.272 582.299C412.786 582.787 412.22 583.03 411.573 583.03C410.926 583.03 410.359 582.787 409.874 582.299L405.99 578.459C405.505 577.972 405.262 577.393 405.262 576.724C405.262 576.054 405.505 575.475 405.99 574.985ZM408.417 545.731C408.903 546.219 409.146 546.798 409.146 547.47C409.146 548.141 408.903 548.719 408.417 549.205L404.595 553.045C404.109 553.532 403.533 553.776 402.867 553.776C402.2 553.776 401.623 553.532 401.136 553.045C400.649 552.557 400.406 551.979 400.408 551.309C400.409 550.64 400.652 550.06 401.136 549.571L405.019 545.731C405.505 545.244 406.071 545 406.718 545C407.366 545 407.932 545.244 408.417 545.731ZM369.583 545.731C370.068 545.244 370.645 545 371.313 545C371.981 545 372.557 545.244 373.041 545.731L376.864 549.632C377.35 550.119 377.592 550.688 377.592 551.338C377.592 551.988 377.35 552.557 376.864 553.045C376.379 553.532 375.803 553.776 375.136 553.776C374.469 553.776 373.892 553.532 373.405 553.045L369.583 549.205C369.097 548.718 368.854 548.139 368.854 547.47C368.854 546.8 369.097 546.221 369.583 545.731ZM372.01 574.985C372.495 575.473 372.738 576.052 372.738 576.724C372.738 577.395 372.495 577.973 372.01 578.459L368.187 582.299C367.701 582.787 367.125 583.03 366.459 583.03C365.792 583.03 365.215 582.787 364.728 582.299C364.241 581.811 363.998 581.233 364 580.563C364.002 579.894 364.244 579.314 364.728 578.825L368.612 574.985C369.097 574.498 369.663 574.254 370.311 574.254C370.958 574.254 371.524 574.498 372.01 574.985ZM389 580.532L378.927 586.626C378.482 586.911 378.017 587.032 377.532 586.992C377.046 586.951 376.621 586.789 376.257 586.504C375.893 586.22 375.61 585.865 375.408 585.439C375.206 585.013 375.165 584.535 375.286 584.005L377.956 572.487L369.036 564.747C368.632 564.381 368.379 563.964 368.279 563.496C368.179 563.028 368.209 562.571 368.369 562.126C368.529 561.681 368.772 561.315 369.097 561.029C369.422 560.743 369.867 560.56 370.432 560.48L382.204 559.444L386.755 548.596C386.957 548.108 387.271 547.743 387.697 547.499C388.122 547.255 388.557 547.133 389 547.133C389.443 547.133 389.878 547.255 390.303 547.499C390.729 547.743 391.043 548.108 391.245 548.596L395.796 559.444L407.568 560.48C408.134 560.562 408.579 560.744 408.903 561.029C409.227 561.313 409.469 561.679 409.631 562.126C409.793 562.573 409.824 563.03 409.723 563.498C409.623 563.966 409.37 564.382 408.964 564.747L400.044 572.487L402.714 584.005C402.835 584.534 402.795 585.012 402.592 585.439C402.39 585.866 402.107 586.221 401.743 586.504C401.379 586.787 400.954 586.95 400.468 586.992C399.983 587.034 399.518 586.912 399.073 586.626L389 580.532Z" fill="#4333FF"/>
<path d="M298.99 574.985C299.476 574.498 300.053 574.254 300.721 574.254C301.389 574.254 301.965 574.498 302.449 574.985L306.272 578.886C306.757 579.374 307 579.942 307 580.593C307 581.243 306.757 581.811 306.272 582.299C305.786 582.787 305.22 583.03 304.573 583.03C303.926 583.03 303.359 582.787 302.874 582.299L298.99 578.459C298.505 577.972 298.262 577.393 298.262 576.724C298.262 576.054 298.505 575.475 298.99 574.985ZM301.417 545.731C301.903 546.219 302.146 546.798 302.146 547.47C302.146 548.141 301.903 548.719 301.417 549.205L297.595 553.045C297.109 553.532 296.533 553.776 295.867 553.776C295.2 553.776 294.623 553.532 294.136 553.045C293.649 552.557 293.406 551.979 293.408 551.309C293.409 550.64 293.652 550.06 294.136 549.571L298.019 545.731C298.505 545.244 299.071 545 299.718 545C300.366 545 300.932 545.244 301.417 545.731ZM262.583 545.731C263.068 545.244 263.645 545 264.313 545C264.981 545 265.557 545.244 266.041 545.731L269.864 549.632C270.35 550.119 270.592 550.688 270.592 551.338C270.592 551.988 270.35 552.557 269.864 553.045C269.379 553.532 268.803 553.776 268.136 553.776C267.469 553.776 266.892 553.532 266.405 553.045L262.583 549.205C262.097 548.718 261.854 548.139 261.854 547.47C261.854 546.8 262.097 546.221 262.583 545.731ZM265.01 574.985C265.495 575.473 265.738 576.052 265.738 576.724C265.738 577.395 265.495 577.973 265.01 578.459L261.187 582.299C260.701 582.787 260.125 583.03 259.459 583.03C258.792 583.03 258.215 582.787 257.728 582.299C257.241 581.811 256.998 581.233 257 580.563C257.002 579.894 257.244 579.314 257.728 578.825L261.612 574.985C262.097 574.498 262.663 574.254 263.311 574.254C263.958 574.254 264.524 574.498 265.01 574.985ZM282 580.532L271.927 586.626C271.482 586.911 271.017 587.032 270.532 586.992C270.046 586.951 269.621 586.789 269.257 586.504C268.893 586.22 268.61 585.865 268.408 585.439C268.206 585.013 268.165 584.535 268.286 584.005L270.956 572.487L262.036 564.747C261.632 564.381 261.379 563.964 261.279 563.496C261.179 563.028 261.209 562.571 261.369 562.126C261.529 561.681 261.772 561.315 262.097 561.029C262.422 560.743 262.867 560.56 263.432 560.48L275.204 559.444L279.755 548.596C279.957 548.108 280.271 547.743 280.697 547.499C281.122 547.255 281.557 547.133 282 547.133C282.443 547.133 282.878 547.255 283.303 547.499C283.729 547.743 284.043 548.108 284.245 548.596L288.796 559.444L300.568 560.48C301.134 560.562 301.579 560.744 301.903 561.029C302.227 561.313 302.469 561.679 302.631 562.126C302.793 562.573 302.824 563.03 302.723 563.498C302.623 563.966 302.37 564.382 301.964 564.747L293.044 572.487L295.714 584.005C295.835 584.534 295.795 585.012 295.592 585.439C295.39 585.866 295.107 586.221 294.743 586.504C294.379 586.787 293.954 586.95 293.468 586.992C292.983 587.034 292.518 586.912 292.073 586.626L282 580.532Z" fill="#4333FF"/>
<defs>
<filter id="filter0_ddii_2002_87" x="0.63736" y="7.79068" width="677.705" height="802.548" filterUnits="userSpaceOnUse" color-interpolation-filters="sRGB">
<feFlood flood-opacity="0" result="BackgroundImageFix"/>
<feColorMatrix in="SourceAlpha" type="matrix" values="0 0 0 0 0 0 0 0 0 0 0 0 0 0 0 0 0 0 127 0" result="hardAlpha"/>
<feOffset dx="26.3186" dy="-26.3186"/>
<feGaussianBlur stdDeviation="28.5119"/>
<feComposite in2="hardAlpha" operator="out"/>
<feColorMatrix type="matrix" values="0 0 0 0 1 0 0 0 0 1 0 0 0 0 1 0 0 0 1 0"/>
<feBlend mode="normal" in2="BackgroundImageFix" result="effect1_dropShadow_2002_87"/>
<feColorMatrix in="SourceAlpha" type="matrix" values="0 0 0 0 0 0 0 0 0 0 0 0 0 0 0 0 0 0 127 0" result="hardAlpha"/>
<feOffset dx="-26.3186" dy="26.3186"/>
<feGaussianBlur stdDeviation="28.5119"/>
<feComposite in2="hardAlpha" operator="out"/>
<feColorMatrix type="matrix" values="0 0 0 0 0 0 0 0 0 0 0 0 0 0 0 0 0 0 0.5 0"/>
<feBlend mode="normal" in2="effect1_dropShadow_2002_87" result="effect2_dropShadow_2002_87"/>
<feBlend mode="normal" in="SourceGraphic" in2="effect2_dropShadow_2002_87" result="shape"/>
<feColorMatrix in="SourceAlpha" type="matrix" values="0 0 0 0 0 0 0 0 0 0 0 0 0 0 0 0 0 0 127 0" result="hardAlpha"/>
<feOffset dx="-13.1593" dy="13.1593"/>
<feGaussianBlur stdDeviation="8.11492"/>
<feComposite in2="hardAlpha" operator="arithmetic" k2="-1" k3="1"/>
<feColorMatrix type="matrix" values="0 0 0 0 1 0 0 0 0 1 0 0 0 0 1 0 0 0 0.77 0"/>
<feBlend mode="normal" in2="shape" result="effect3_innerShadow_2002_87"/>
<feColorMatrix in="SourceAlpha" type="matrix" values="0 0 0 0 0 0 0 0 0 0 0 0 0 0 0 0 0 0 127 0" result="hardAlpha"/>
<feOffset dx="13.1593" dy="-13.1593"/>
<feGaussianBlur stdDeviation="8.11492"/>
<feComposite in2="hardAlpha" operator="arithmetic" k2="-1" k3="1"/>
<feColorMatrix type="matrix" values="0 0 0 0 0 0 0 0 0 0 0 0 0 0 0 0 0 0 0.45 0"/>
<feBlend mode="normal" in2="effect3_innerShadow_2002_87" result="effect4_innerShadow_2002_87"/>
</filter>
<filter id="filter1_ii_2002_87" x="118.458" y="124.031" width="442.064" height="565.387" filterUnits="userSpaceOnUse" color-interpolation-filters="sRGB">
<feFlood flood-opacity="0" result="BackgroundImageFix"/>
<feBlend mode="normal" in="SourceGraphic" in2="BackgroundImageFix" result="shape"/>
<feColorMatrix in="SourceAlpha" type="matrix" values="0 0 0 0 0 0 0 0 0 0 0 0 0 0 0 0 0 0 127 0" result="hardAlpha"/>
<feOffset dx="-13.1593" dy="13.1593"/>
<feGaussianBlur stdDeviation="23.0288"/>
<feComposite in2="hardAlpha" operator="arithmetic" k2="-1" k3="1"/>
<feColorMatrix type="matrix" values="0 0 0 0 0 0 0 0 0 0 0 0 0 0 0 0 0 0 0.43 0"/>
<feBlend mode="normal" in2="shape" result="effect1_innerShadow_2002_87"/>
<feColorMatrix in="SourceAlpha" type="matrix" values="0 0 0 0 0 0 0 0 0 0 0 0 0 0 0 0 0 0 127 0" result="hardAlpha"/>
<feOffset dx="13.1593" dy="-13.1593"/>
<feGaussianBlur stdDeviation="25.1124"/>
<feComposite in2="hardAlpha" operator="arithmetic" k2="-1" k3="1"/>
<feColorMatrix type="matrix" values="0 0 0 0 1 0 0 0 0 1 0 0 0 0 1 0 0 0 0.55 0"/>
<feBlend mode="normal" in2="effect1_innerShadow_2002_87" result="effect2_innerShadow_2002_87"/>
</filter>
<filter id="filter2_f_2002_87" x="93.5" y="306.5" width="136.5" height="337.5" filterUnits="userSpaceOnUse" color-interpolation-filters="sRGB">
<feFlood flood-opacity="0" result="BackgroundImageFix"/>
<feBlend mode="normal" in="SourceGraphic" in2="BackgroundImageFix" result="shape"/>
<feGaussianBlur stdDeviation="5.25" result="effect1_foregroundBlur_2002_87"/>
</filter>
<filter id="filter3_d_2002_87" x="278" y="240" width="158" height="283" filterUnits="userSpaceOnUse" color-interpolation-filters="sRGB">
<feFlood flood-opacity="0" result="BackgroundImageFix"/>
<feColorMatrix in="SourceAlpha" type="matrix" values="0 0 0 0 0 0 0 0 0 0 0 0 0 0 0 0 0 0 127 0" result="hardAlpha"/>
<feOffset dy="4"/>
<feGaussianBlur stdDeviation="2"/>
<feComposite in2="hardAlpha" operator="out"/>
<feColorMatrix type="matrix" values="0 0 0 0 0 0 0 0 0 0 0 0 0 0 0 0 0 0 0.25 0"/>
<feBlend mode="normal" in2="BackgroundImageFix" result="effect1_dropShadow_2002_87"/>
<feBlend mode="normal" in="SourceGraphic" in2="effect1_dropShadow_2002_87" result="shape"/>
</filter>
<linearGradient id="paint0_linear_2002_87" x1="504.98" y1="24.1331" x2="168.48" y2="757" gradientUnits="userSpaceOnUse">
<stop stop-color="#DDDAFA"/>
<stop offset="0.9999" stop-color="#9893C8"/>
</linearGradient>
<linearGradient id="paint1_linear_2002_87" x1="571.456" y1="102.466" x2="195.128" y2="735.437" gradientUnits="userSpaceOnUse">
<stop stop-color="#ACA5FF"/>
<stop offset="1" stop-color="#4333FF"/>
</linearGradient>
<linearGradient id="paint2_linear_2002_87" x1="545.653" y1="137.191" x2="211.187" y2="699.752" gradientUnits="userSpaceOnUse">
<stop stop-color="#ACA5FF"/>
<stop offset="1" stop-color="#4333FF"/>
</linearGradient>
<linearGradient id="paint3_linear_2002_87" x1="507.216" y1="176.066" x2="220.047" y2="641.616" gradientUnits="userSpaceOnUse">
<stop stop-color="#4333FF"/>
<stop offset="1" stop-color="#ACA5FF"/>
</linearGradient>
<linearGradient id="paint4_linear_2002_87" x1="134.61" y1="314.906" x2="167.536" y2="636.111" gradientUnits="userSpaceOnUse">
<stop stop-color="white" stop-opacity="0"/>
<stop offset="0.47" stop-color="white"/>
<stop offset="1" stop-color="white" stop-opacity="0"/>
</linearGradient>
</defs>
</svg>
